<svg width="18" height="18" viewBox="0 0 18 18" fill="none" xmlns="http://www.w3.org/2000/svg">
<path fill-rule="evenodd" clip-rule="evenodd" d="M9 1.5C13.1423 1.5 16.5 4.85775 16.5 9C16.5026 10.7309 15.904 12.409 14.8065 13.7475L14.8215 13.764L14.7225 13.848C14.0192 14.6799 13.1427 15.3483 12.1543 15.8063C11.1659 16.2644 10.0894 16.5011 9 16.5C6.7875 16.5 4.8 15.5423 3.4275 14.0198L3.2775 13.8472L3.1785 13.7648L3.1935 13.7467C2.09607 12.4085 1.49747 10.7307 1.5 9C1.5 4.85775 4.85775 1.5 9 1.5ZM9 12.75C7.605 12.75 6.34425 13.194 5.40525 13.8045C6.44206 14.5825 7.70378 15.0021 9 15C10.2962 15.0021 11.5579 14.5825 12.5947 13.8045C11.5218 13.117 10.2744 12.751 9 12.75ZM9 3C7.87089 2.99997 6.76469 3.31854 5.80854 3.91909C4.85239 4.51964 4.0851 5.3778 3.59487 6.39493C3.10464 7.41206 2.91135 8.54688 3.03724 9.66894C3.16312 10.791 3.60307 11.8548 4.3065 12.738C5.52225 11.8657 7.18125 11.25 9 11.25C10.8188 11.25 12.4777 11.8657 13.6935 12.738C14.3969 11.8548 14.8369 10.791 14.9628 9.66894C15.0886 8.54688 14.8954 7.41206 14.4051 6.39493C13.9149 5.3778 13.1476 4.51964 12.1915 3.91909C11.2353 3.31854 10.1291 2.99997 9 3ZM9 4.5C9.79565 4.5 10.5587 4.81607 11.1213 5.37868C11.6839 5.94129 12 6.70435 12 7.5C12 8.29565 11.6839 9.05871 11.1213 9.62132C10.5587 10.1839 9.79565 10.5 9 10.5C8.20435 10.5 7.44129 10.1839 6.87868 9.62132C6.31607 9.05871 6 8.29565 6 7.5C6 6.70435 6.31607 5.94129 6.87868 5.37868C7.44129 4.81607 8.20435 4.5 9 4.5ZM9 6C8.60217 6 8.22064 6.15804 7.93934 6.43934C7.65804 6.72064 7.5 7.10218 7.5 7.5C7.5 7.89782 7.65804 8.27936 7.93934 8.56066C8.22064 8.84196 8.60217 9 9 9C9.39783 9 9.77936 8.84196 10.0607 8.56066C10.342 8.27936 10.5 7.89782 10.5 7.5C10.5 7.10218 10.342 6.72064 10.0607 6.43934C9.77936 6.15804 9.39783 6 9 6Z" fill="#699BF7"/>
</svg>
